HIERARCHY
ROOT hip
{
  OFFSET -18.89 80.8588 275.764
  CHANNELS 6 Xposition Yposition Zposition Zrotation Xrotation Yrotation
  JOINT abdomen
  {
    OFFSET 0 20.6881 -0.73152
    CHANNELS 3 Zrotation Xrotation Yrotation
    JOINT chest
    {
      OFFSET 0 11.7043 -0.48768
      CHANNELS 3 Zrotation Xrotation Yrotation
      JOINT neck
      {
        OFFSET 0 22.1894 -2.19456
        CHANNELS 3 Zrotation Xrotation Yrotation
        JOINT head
        {
          OFFSET -0.24384 7.07133 1.2192
          CHANNELS 3 Zrotation Xrotation Yrotation
          JOINT leftEye
          {
            OFFSET 4.14528 8.04674 8.04672
            CHANNELS 3 Zrotation Xrotation Yrotation
            End Site
            {
              OFFSET 1 0 0
            }
          }
          JOINT rightEye
          {
            OFFSET -3.6576 8.04674 8.04672
            CHANNELS 3 Zrotation Xrotation Yrotation
            End Site
            {
              OFFSET 1 0 0
            }
          }
        }
      }
      JOINT rCollar
      {
        OFFSET -2.68224 19.2634 -4.8768
        CHANNELS 3 Zrotation Xrotation Yrotation
        JOINT rShldr
        {
          OFFSET -8.77824 -1.95073 1.46304
          CHANNELS 3 Zrotation Xrotation Yrotation
          JOINT rForeArm
          {
            OFFSET -28.1742 -1.7115 0.48768
            CHANNELS 3 Zrotation Xrotation Yrotation
            JOINT rHand
            {
              OFFSET -22.5879 0.773209 7.07136
              CHANNELS 3 Zrotation Xrotation Yrotation
              JOINT rThumb1
              {
                OFFSET -1.2192 -0.487915 3.41376
                CHANNELS 3 Zrotation Xrotation Yrotation
                JOINT rThumb2
                {
                  OFFSET -3.37035 -0.52449 3.41376
                  CHANNELS 3 Zrotation Xrotation Yrotation
                  End Site
                  {
                    OFFSET -1.78271 -1.18214 1.43049
                  }
                }
              }
              JOINT rIndex1
              {
                OFFSET -7.75947 0.938293 5.60832
                CHANNELS 3 Zrotation Xrotation Yrotation
                JOINT rIndex2
                {
                  OFFSET -2.54057 -0.884171 1.56538
                  CHANNELS 3 Zrotation Xrotation Yrotation
                  End Site
                  {
                    OFFSET -1.62519 -0.234802 1.16502
                  }
                }
              }
              JOINT rMid1
              {
                OFFSET -8.24714 1.18213 3.41376
                CHANNELS 3 Zrotation Xrotation Yrotation
                JOINT rMid2
                {
                  OFFSET -3.10165 -0.590103 1.0647
                  CHANNELS 3 Zrotation Xrotation Yrotation
                  End Site
                  {
                    OFFSET -2.48547 -0.328903 0.83742
                  }
                }
              }
              JOINT rRing1
              {
                OFFSET -8.82822 0.546677 1.51678
                CHANNELS 3 Zrotation Xrotation Yrotation
                JOINT rRing2
                {
                  OFFSET -2.60934 -0.819778 -0.0198488
                  CHANNELS 3 Zrotation Xrotation Yrotation
                  End Site
                  {
                    OFFSET -2.33842 -0.294052 0.168128
                  }
                }
              }
              JOINT rPinky1
              {
                OFFSET -8.27202 -0.0477905 -0.4584
                CHANNELS 3 Zrotation Xrotation Yrotation
                JOINT rPinky2
                {
                  OFFSET -1.82734 -0.647385 -0.700984
                  CHANNELS 3 Zrotation Xrotation Yrotation
                  End Site
                  {
                    OFFSET -1.69225 -0.51767 -0.607171
                  }
                }
              }
            }
          }
        }
      }
      JOINT lCollar
      {
        OFFSET 2.68224 19.2634 -4.8768
        CHANNELS 3 Zrotation Xrotation Yrotation
        JOINT lShldr
        {
          OFFSET 8.77824 -1.95073 1.46304
          CHANNELS 3 Zrotation Xrotation Yrotation
          JOINT lForeArm
          {
            OFFSET 28.1742 -1.7115 0.48768
            CHANNELS 3 Zrotation Xrotation Yrotation
            JOINT lHand
            {
              OFFSET 22.5879 0.773209 7.07136
              CHANNELS 3 Zrotation Xrotation Yrotation
              JOINT lThumb1
              {
                OFFSET 1.2192 -0.487915 3.41376
                CHANNELS 3 Zrotation Xrotation Yrotation
                JOINT lThumb2
                {
                  OFFSET 3.37035 -0.52449 3.41376
                  CHANNELS 3 Zrotation Xrotation Yrotation
                  End Site
                  {
                    OFFSET 1.78271 -1.18214 1.43049
                  }
                }
              }
              JOINT lIndex1
              {
                OFFSET 7.75947 0.938293 5.60832
                CHANNELS 3 Zrotation Xrotation Yrotation
                JOINT lIndex2
                {
                  OFFSET 2.54057 -0.884171 1.56538
                  CHANNELS 3 Zrotation Xrotation Yrotation
                  End Site
                  {
                    OFFSET 1.62519 -0.234802 1.16502
                  }
                }
              }
              JOINT lMid1
              {
                OFFSET 8.24714 1.18213 3.41376
                CHANNELS 3 Zrotation Xrotation Yrotation
                JOINT lMid2
                {
                  OFFSET 3.10165 -0.590103 1.0647
                  CHANNELS 3 Zrotation Xrotation Yrotation
                  End Site
                  {
                    OFFSET 2.48547 -0.328903 0.83742
                  }
                }
              }
              JOINT lRing1
              {
                OFFSET 8.82822 0.546677 1.51678
                CHANNELS 3 Zrotation Xrotation Yrotation
                JOINT lRing2
                {
                  OFFSET 2.60934 -0.819778 -0.0198488
                  CHANNELS 3 Zrotation Xrotation Yrotation
                  End Site
                  {
                    OFFSET 2.33842 -0.294052 0.168128
                  }
                }
              }
              JOINT lPinky1
              {
                OFFSET 8.27202 -0.0477905 -0.4584
                CHANNELS 3 Zrotation Xrotation Yrotation
                JOINT lPinky2
                {
                  OFFSET 1.82734 -0.647385 -0.700984
                  CHANNELS 3 Zrotation Xrotation Yrotation
                  End Site
                  {
                    OFFSET 1.69225 -0.51767 -0.607171
                  }
                }
              }
            }
          }
        }
      }
    }
  }
  JOINT rButtock
  {
    OFFSET -8.77824 4.35084 1.2192
    CHANNELS 3 Zrotation Xrotation Yrotation
    JOINT rThigh
    {
      OFFSET 0 -1.70687 -2.19456
      CHANNELS 3 Zrotation Xrotation Yrotation
      JOINT rShin
      {
        OFFSET 0 -36.8199 0.73152
        CHANNELS 3 Zrotation Xrotation Yrotation
        JOINT rFoot
        {
          OFFSET 0.73152 -45.1104 -5.12064
          CHANNELS 3 Zrotation Xrotation Yrotation
          End Site
          {
            OFFSET -1.1221 -3.69964 12.103
          }
        }
      }
    }
  }
  JOINT lButtock
  {
    OFFSET 8.77824 4.35084 1.2192
    CHANNELS 3 Zrotation Xrotation Yrotation
    JOINT lThigh
    {
      OFFSET 0 -1.70687 -2.19456
      CHANNELS 3 Zrotation Xrotation Yrotation
      JOINT lShin
      {
        OFFSET 0 -36.8199 0.73152
        CHANNELS 3 Zrotation Xrotation Yrotation
        JOINT lFoot
        {
          OFFSET -0.73152 -45.1104 -5.12064
          CHANNELS 3 Zrotation Xrotation Yrotation
          End Site
          {
            OFFSET 1.1221 -3.69964 12.103
          }
        }
      }
    }
  }
}
MOTION
Frames:	5
Frame Time:	0.00833333
-5.65275 78.4627 210.615 -1.70065 8.10913 42.1826 1.25527 22.2497 -1.91559 3.85437 -8.08963 -0.0990178 -13.7725 9.40004 -13.3694 18.4831 -32.2547 -20.2411 -0 0 0 -0 0 0 8.98225e-015 2.82288e-013 -2.7036e-013 79.336 11.3258 -8.19229 -17.037 -9.68755 31.8939 -0.0180744 -3.83567 -0.539882 3.09612e-010 1.60246e-009 -2.10821e-009 5.44722e-010 2.77352e-009 -3.65291e-009 3.09618e-010 1.60245e-009 -2.10822e-009 7.73091 5.47488 0.417314 3.09614e-010 1.60245e-009 -2.1082e-009 2.90554 0.965183 0.102902 3.09617e-010 1.60245e-009 -2.1082e-009 10.2786 0.731801 0.0259123 3.09604e-010 1.60245e-009 -2.10819e-009 2.22167 -0.733487 -0.20892 8.89978e-015 2.8226e-013 -2.7068e-013 -79.2064 4.07001 15.2264 23.1479 -17.5847 -47.0151 0.00275656 -1.5047 0.211519 1.18746e-009 2.10957e-009 -1.82909e-009 2.05939e-009 3.64949e-009 -3.17053e-009 1.18746e-009 2.10957e-009 -1.82907e-009 -7.73091 5.47488 -0.417314 1.18746e-009 2.10957e-009 -1.82908e-009 -2.90554 0.965183 -0.102902 1.18745e-009 2.10957e-009 -1.82908e-009 -10.2786 0.731801 -0.0259123 1.18746e-009 2.10957e-009 -1.82909e-009 -2.22167 -0.733487 0.20892 -2.03217e-016 0 -3.88251e-019 -18.7968 -36.8953 -16.0384 -0.449172 45.9352 0.863063 -1.22692 -7.49423 -5.01181 2.03217e-016 0 3.88251e-019 14.1315 -20.1329 -5.35705 0.357485 39.1724 -0.511905 1.08262 0.549859 5.90729 
-5.64176 78.6813 211.274 -1.46137 8.05799 41.4077 1.09797 21.8516 -1.99637 3.83937 -8.00392 -0.13452 -13.6974 9.14355 -13.2544 18.288 -32.0447 -20.0414 -0 0 0 -0 0 0 -2.24782e-013 2.08692e-013 2.47938e-013 79.5138 11.6688 -8.1459 -17.0623 -9.71286 31.9489 -0.0185448 -3.88496 -0.546842 1.1739e-009 -7.7234e-010 9.10713e-010 2.02154e-009 -1.33328e-009 1.57935e-009 1.17391e-009 -7.72347e-010 9.10705e-010 7.73091 5.47488 0.417314 1.17391e-009 -7.72348e-010 9.10727e-010 2.90554 0.965183 0.102902 1.1739e-009 -7.72349e-010 9.1072e-010 10.2786 0.731801 0.0259123 1.17389e-009 -7.72348e-010 9.10734e-010 2.22167 -0.733487 -0.20892 -2.24813e-013 2.08657e-013 2.47627e-013 -79.2988 3.98789 14.9392 23.0692 -17.4524 -46.7854 0.00206202 -1.29134 0.181516 6.85237e-010 -2.2358e-009 1.4806e-009 1.1804e-009 -3.86637e-009 2.56724e-009 6.85234e-010 -2.2358e-009 1.48062e-009 -7.73091 5.47488 -0.417314 6.85236e-010 -2.2358e-009 1.48061e-009 -2.90554 0.965183 -0.102902 6.85225e-010 -2.2358e-009 1.48061e-009 -10.2786 0.731801 -0.0259123 6.85239e-010 -2.2358e-009 1.4806e-009 -2.22167 -0.733487 0.20892 -2.03217e-016 0 -3.88251e-019 -17.9352 -36.4185 -15.0207 -0.437529 45.4908 0.841358 -1.22924 -7.61582 -5.00981 2.03217e-016 0 3.88251e-019 14.1448 -19.4308 -5.47369 0.355862 38.9445 -0.491472 0.962376 1.8823 6.0509 
-5.6369 78.8909 211.927 -1.25313 7.9905 40.6551 0.989084 21.4482 -2.09612 3.81323 -7.94331 -0.172439 -13.613 8.88675 -13.1339 18.0811 -31.8003 -19.8381 -0 0 0 -0 0 0 -3.91192e-013 1.52686e-013 6.49082e-013 79.6895 12.0353 -8.11731 -17.0845 -9.73518 31.9973 -0.0189898 -3.93101 -0.553344 1.65558e-009 -2.32429e-009 3.06242e-009 2.84191e-009 -4.01678e-009 5.30833e-009 1.65558e-009 -2.3243e-009 3.06241e-009 7.73091 5.47488 0.417314 1.65559e-009 -2.3243e-009 3.06244e-009 2.90554 0.965183 0.102902 1.65558e-009 -2.3243e-009 3.06243e-009 10.2786 0.731801 0.0259123 1.65557e-009 -2.3243e-009 3.06244e-009 2.22167 -0.733487 -0.20892 -3.91201e-013 1.52649e-013 6.48783e-013 -79.4043 3.9666 14.7084 23.0027 -17.341 -46.5935 0.00139447 -1.06622 0.149865 2.02859e-010 -5.36178e-009 3.79219e-009 3.39234e-010 -9.27348e-009 6.57493e-009 2.02856e-010 -5.36179e-009 3.79221e-009 -7.73091 5.47488 -0.417314 2.02858e-010 -5.36179e-009 3.7922e-009 -2.90554 0.965183 -0.102902 2.02846e-010 -5.36179e-009 3.7922e-009 -10.2786 0.731801 -0.0259123 2.02862e-010 -5.36179e-009 3.7922e-009 -2.22167 -0.733487 0.20892 -2.03217e-016 0 -3.88251e-019 -17.0656 -35.9295 -14.02 -0.425875 45.0425 0.819814 -1.23333 -7.73924 -5.02033 2.03217e-016 0 3.88251e-019 14.1679 -18.7966 -5.59461 0.355881 38.782 -0.471376 0.832158 3.25911 6.22801 
-5.63786 79.0922 212.573 -1.07783 7.90902 39.9307 0.933286 21.0371 -2.22275 3.77004 -7.92083 -0.21478 -13.5163 8.62934 -13.0054 17.853 -31.5072 -19.631 -0 0 0 -0 0 0 -4.72383e-013 1.19199e-013 9.16861e-013 79.8655 12.4383 -8.11429 -17.0992 -9.74995 32.0295 -0.0193935 -3.97255 -0.559211 1.5997e-009 -2.74082e-009 4.09209e-009 2.73948e-009 -4.73612e-009 7.09219e-009 1.5997e-009 -2.74083e-009 4.09209e-009 7.73091 5.47488 0.417314 1.5997e-009 -2.74083e-009 4.0921e-009 2.90554 0.965183 0.102902 1.5997e-009 -2.74083e-009 4.0921e-009 10.2786 0.731801 0.0259123 1.59969e-009 -2.74083e-009 4.09211e-009 2.22167 -0.733487 -0.20892 -4.72417e-013 1.19169e-013 9.16584e-013 -79.5218 4.00663 14.5512 22.9504 -17.2541 -46.4434 0.000763831 -0.822597 0.115616 -3.17857e-010 -6.94135e-009 4.79879e-009 -5.63413e-010 -1.20064e-008 8.32062e-009 -3.17859e-010 -6.94135e-009 4.79881e-009 -7.73091 5.47488 -0.417314 -3.17859e-010 -6.94135e-009 4.7988e-009 -2.90554 0.965183 -0.102902 -3.17869e-010 -6.94135e-009 4.7988e-009 -10.2786 0.731801 -0.0259123 -3.17854e-010 -6.94135e-009 4.7988e-009 -2.22167 -0.733487 0.20892 -2.03217e-016 0 -3.88251e-019 -16.1962 -35.4319 -13.0483 -0.414283 44.5922 0.798593 -1.23908 -7.86324 -5.04229 2.03217e-016 0 3.88251e-019 14.1975 -18.2361 -5.71819 0.357215 38.6793 -0.451236 0.687395 4.69649 6.44679 
-5.64786 79.2836 213.226 -0.926028 7.81487 39.2288 0.917338 20.6221 -2.37028 3.71375 -7.92441 -0.260578 -13.4016 8.36819 -12.8728 17.5917 -31.177 -19.4305 -0 0 0 -0 0 0 -5.10299e-013 8.65801e-014 1.13706e-012 80.0416 12.8698 -8.12706 -17.1083 -9.75909 32.0496 -0.0198107 -4.015 -0.565206 1.20536e-009 -2.52841e-009 4.555e-009 2.05524e-009 -4.36733e-009 7.8934e-009 1.20536e-009 -2.52841e-009 4.555e-009 7.73091 5.47488 0.417314 1.20536e-009 -2.52841e-009 4.55501e-009 2.90554 0.965183 0.102902 1.20536e-009 -2.52842e-009 4.55501e-009 10.2786 0.731801 0.0259123 1.20535e-009 -2.52842e-009 4.55502e-009 2.22167 -0.733487 -0.20892 -5.10382e-013 8.65616e-014 1.13682e-012 -79.6522 4.09645 14.4452 22.909 -17.1858 -46.3236 0.000292084 -0.556085 0.0781539 -9.11855e-010 -7.74914e-009 5.1205e-009 -1.5901e-009 -1.34049e-008 8.87926e-009 -9.11855e-010 -7.74914e-009 5.12052e-009 -7.73091 5.47488 -0.417314 -9.11857e-010 -7.74914e-009 5.12051e-009 -2.90554 0.965183 -0.102902 -9.11865e-010 -7.74915e-009 5.12051e-009 -10.2786 0.731801 -0.0259123 -9.11852e-010 -7.74914e-009 5.12051e-009 -2.22167 -0.733487 0.20892 -2.03217e-016 0 -3.88251e-019 -15.3277 -34.9216 -12.0896 -0.402735 44.1392 0.777659 -1.24754 -7.98854 -5.07874 2.03217e-016 0 3.88251e-019 14.2254 -17.7335 -5.84561 0.359572 38.6253 -0.43092 0.52477 6.18987 6.70575 
